<svg width="108" height="127" viewBox="0 0 108 127" fill="none" xmlns="http://www.w3.org/2000/svg">
<path d="M24.2958 66C23.3944 66 22.6056 65.6901 21.9296 65.0704C21.3099 64.3944 21 63.6056 21 62.7042V3.29577C21 2.33802 21.3099 1.54929 21.9296 0.929576C22.6056 0.309859 23.3944 0 24.2958 0C25.6479 0 26.6338 0.56338 27.2535 1.69014L55.7324 58.3099H52.8592L80.831 1.69014C81.507 0.56338 82.493 0 83.7887 0C84.6901 0 85.4507 0.309859 86.0704 0.929576C86.6901 1.54929 87 2.33802 87 3.29577V62.7042C87 63.6056 86.6901 64.3944 86.0704 65.0704C85.4507 65.6901 84.6901 66 83.7887 66C82.831 66 82.0141 65.6901 81.338 65.0704C80.7183 64.3944 80.4084 63.6056 80.4084 62.7042V11.831L81.8451 11.9155L56.9155 62.8732C56.2958 63.9437 55.338 64.4789 54.0423 64.4789C52.6338 64.4789 51.6197 63.8028 51 62.4507L25.9014 12.2535L27.5915 11.831V62.7042C27.5915 63.6056 27.2535 64.3944 26.5775 65.0704C25.9577 65.6901 25.1972 66 24.2958 66Z" fill="#FAE902"/>
<path d="M5.39309 127C3.91805 127 2.6274 126.493 1.52113 125.479C0.507043 124.373 0 123.082 0 121.607V24.3931C0 22.8259 0.507043 21.5352 1.52113 20.5211C2.6274 19.507 3.91805 19 5.39309 19C7.60563 19 9.21895 19.9219 10.233 21.7657L56.8348 114.416H52.1332L97.9053 21.7657C99.0115 19.9219 100.625 19 102.745 19C104.22 19 105.465 19.507 106.479 20.5211C107.493 21.5352 108 22.8259 108 24.3931V121.607C108 123.082 107.493 124.373 106.479 125.479C105.465 126.493 104.22 127 102.745 127C101.178 127 99.8412 126.493 98.7349 125.479C97.7209 124.373 97.2138 123.082 97.2138 121.607V38.3598L99.5647 38.4981L58.7708 121.883C57.7567 123.635 56.1895 124.511 54.0691 124.511C51.7644 124.511 50.105 123.405 49.0909 121.192L8.02049 39.0512L10.7862 38.3598V121.607C10.7862 123.082 10.233 124.373 9.12676 125.479C8.11268 126.493 6.86812 127 5.39309 127Z" fill="#FAE902"/>
</svg>
